<mxfile host="app.diagrams.net" modified="2023-04-03T08:08:27.714Z" agent="Mozilla/5.0 (X11; Linux x86_64; rv:109.0) Gecko/20100101 Firefox/111.0" etag="K0MUqtIh012zXlOsxrZc" version="21.1.2">
  <diagram name="Page-1" id="DFw1NA6mjUOxKMK1M_Jr">
    <mxGraphModel dx="1962" dy="1230" grid="1" gridSize="10" guides="1" tooltips="1" connect="1" arrows="1" fold="1" page="1" pageScale="1" pageWidth="850" pageHeight="1100" math="0" shadow="0">
      <root>
        <mxCell id="0" />
        <mxCell id="1" parent="0" />
        <mxCell id="cshWt5R04KCTWZORSb7K-19" value="" style="edgeStyle=orthogonalEdgeStyle;rounded=0;orthogonalLoop=1;jettySize=auto;html=1;" edge="1" parent="1" source="cshWt5R04KCTWZORSb7K-17" target="cshWt5R04KCTWZORSb7K-18">
          <mxGeometry relative="1" as="geometry" />
        </mxCell>
        <mxCell id="cshWt5R04KCTWZORSb7K-35" value="" style="edgeStyle=orthogonalEdgeStyle;rounded=0;orthogonalLoop=1;jettySize=auto;html=1;" edge="1" parent="1" source="cshWt5R04KCTWZORSb7K-17" target="cshWt5R04KCTWZORSb7K-34">
          <mxGeometry relative="1" as="geometry" />
        </mxCell>
        <mxCell id="cshWt5R04KCTWZORSb7K-17" value="Karamba(0, b, 0, 3)" style="rounded=1;whiteSpace=wrap;html=1;" vertex="1" parent="1">
          <mxGeometry x="440" y="120" width="120" height="60" as="geometry" />
        </mxCell>
        <mxCell id="cshWt5R04KCTWZORSb7K-22" value="" style="edgeStyle=orthogonalEdgeStyle;rounded=0;orthogonalLoop=1;jettySize=auto;html=1;" edge="1" parent="1" source="cshWt5R04KCTWZORSb7K-18" target="cshWt5R04KCTWZORSb7K-21">
          <mxGeometry relative="1" as="geometry" />
        </mxCell>
        <mxCell id="cshWt5R04KCTWZORSb7K-25" value="" style="edgeStyle=orthogonalEdgeStyle;rounded=0;orthogonalLoop=1;jettySize=auto;html=1;" edge="1" parent="1" source="cshWt5R04KCTWZORSb7K-18" target="cshWt5R04KCTWZORSb7K-24">
          <mxGeometry relative="1" as="geometry" />
        </mxCell>
        <mxCell id="cshWt5R04KCTWZORSb7K-31" value="" style="edgeStyle=orthogonalEdgeStyle;rounded=0;orthogonalLoop=1;jettySize=auto;html=1;" edge="1" parent="1" source="cshWt5R04KCTWZORSb7K-18" target="cshWt5R04KCTWZORSb7K-30">
          <mxGeometry relative="1" as="geometry" />
        </mxCell>
        <mxCell id="cshWt5R04KCTWZORSb7K-18" value="Karamba(0, b, 0, 1)" style="rounded=1;whiteSpace=wrap;html=1;" vertex="1" parent="1">
          <mxGeometry x="70" y="250" width="120" height="60" as="geometry" />
        </mxCell>
        <mxCell id="cshWt5R04KCTWZORSb7K-29" value="" style="edgeStyle=orthogonalEdgeStyle;rounded=0;orthogonalLoop=1;jettySize=auto;html=1;" edge="1" parent="1" source="cshWt5R04KCTWZORSb7K-21" target="cshWt5R04KCTWZORSb7K-28">
          <mxGeometry relative="1" as="geometry" />
        </mxCell>
        <mxCell id="cshWt5R04KCTWZORSb7K-21" value="Karamba(0, b, 0, 0)" style="rounded=1;whiteSpace=wrap;html=1;" vertex="1" parent="1">
          <mxGeometry x="-260" y="330" width="120" height="60" as="geometry" />
        </mxCell>
        <mxCell id="cshWt5R04KCTWZORSb7K-27" value="" style="edgeStyle=orthogonalEdgeStyle;rounded=0;orthogonalLoop=1;jettySize=auto;html=1;" edge="1" parent="1" source="cshWt5R04KCTWZORSb7K-24" target="cshWt5R04KCTWZORSb7K-26">
          <mxGeometry relative="1" as="geometry" />
        </mxCell>
        <mxCell id="cshWt5R04KCTWZORSb7K-24" value="Karamba(0, b, 0, 0)" style="rounded=1;whiteSpace=wrap;html=1;" vertex="1" parent="1">
          <mxGeometry x="305" y="330" width="120" height="60" as="geometry" />
        </mxCell>
        <mxCell id="cshWt5R04KCTWZORSb7K-32" style="edgeStyle=orthogonalEdgeStyle;rounded=0;orthogonalLoop=1;jettySize=auto;html=1;entryX=1;entryY=0.5;entryDx=0;entryDy=0;" edge="1" parent="1" source="cshWt5R04KCTWZORSb7K-26" target="cshWt5R04KCTWZORSb7K-30">
          <mxGeometry relative="1" as="geometry" />
        </mxCell>
        <mxCell id="cshWt5R04KCTWZORSb7K-26" value="&lt;div&gt;Return&lt;/div&gt;&lt;div&gt;2&lt;br&gt;&lt;/div&gt;" style="rounded=1;whiteSpace=wrap;html=1;" vertex="1" parent="1">
          <mxGeometry x="305" y="470" width="120" height="60" as="geometry" />
        </mxCell>
        <mxCell id="cshWt5R04KCTWZORSb7K-33" style="edgeStyle=orthogonalEdgeStyle;rounded=0;orthogonalLoop=1;jettySize=auto;html=1;entryX=0;entryY=0.5;entryDx=0;entryDy=0;" edge="1" parent="1" source="cshWt5R04KCTWZORSb7K-28" target="cshWt5R04KCTWZORSb7K-30">
          <mxGeometry relative="1" as="geometry" />
        </mxCell>
        <mxCell id="cshWt5R04KCTWZORSb7K-28" value="&lt;div&gt;Return&lt;/div&gt;&lt;div&gt;2&lt;br&gt;&lt;/div&gt;" style="rounded=1;whiteSpace=wrap;html=1;" vertex="1" parent="1">
          <mxGeometry x="-260" y="470" width="120" height="60" as="geometry" />
        </mxCell>
        <mxCell id="cshWt5R04KCTWZORSb7K-30" value="Return 4" style="rounded=1;whiteSpace=wrap;html=1;" vertex="1" parent="1">
          <mxGeometry x="70" y="690" width="120" height="60" as="geometry" />
        </mxCell>
        <mxCell id="cshWt5R04KCTWZORSb7K-38" value="" style="edgeStyle=orthogonalEdgeStyle;rounded=0;orthogonalLoop=1;jettySize=auto;html=1;" edge="1" parent="1" source="cshWt5R04KCTWZORSb7K-34" target="cshWt5R04KCTWZORSb7K-37">
          <mxGeometry relative="1" as="geometry" />
        </mxCell>
        <mxCell id="cshWt5R04KCTWZORSb7K-42" value="" style="edgeStyle=orthogonalEdgeStyle;rounded=0;orthogonalLoop=1;jettySize=auto;html=1;" edge="1" parent="1" source="cshWt5R04KCTWZORSb7K-34" target="cshWt5R04KCTWZORSb7K-41">
          <mxGeometry relative="1" as="geometry" />
        </mxCell>
        <mxCell id="cshWt5R04KCTWZORSb7K-46" value="" style="edgeStyle=orthogonalEdgeStyle;rounded=0;orthogonalLoop=1;jettySize=auto;html=1;" edge="1" parent="1" source="cshWt5R04KCTWZORSb7K-34" target="cshWt5R04KCTWZORSb7K-45">
          <mxGeometry relative="1" as="geometry" />
        </mxCell>
        <mxCell id="cshWt5R04KCTWZORSb7K-34" value="Karamba(0, b, 2, 3)" style="rounded=1;whiteSpace=wrap;html=1;" vertex="1" parent="1">
          <mxGeometry x="860" y="250" width="120" height="60" as="geometry" />
        </mxCell>
        <mxCell id="cshWt5R04KCTWZORSb7K-40" value="" style="edgeStyle=orthogonalEdgeStyle;rounded=0;orthogonalLoop=1;jettySize=auto;html=1;" edge="1" parent="1" source="cshWt5R04KCTWZORSb7K-37" target="cshWt5R04KCTWZORSb7K-39">
          <mxGeometry relative="1" as="geometry" />
        </mxCell>
        <mxCell id="cshWt5R04KCTWZORSb7K-37" value="Karamba(0, b, 3, 3)" style="rounded=1;whiteSpace=wrap;html=1;" vertex="1" parent="1">
          <mxGeometry x="1120" y="330" width="120" height="60" as="geometry" />
        </mxCell>
        <mxCell id="cshWt5R04KCTWZORSb7K-48" style="edgeStyle=orthogonalEdgeStyle;rounded=0;orthogonalLoop=1;jettySize=auto;html=1;entryX=1;entryY=0.5;entryDx=0;entryDy=0;" edge="1" parent="1" source="cshWt5R04KCTWZORSb7K-39" target="cshWt5R04KCTWZORSb7K-45">
          <mxGeometry relative="1" as="geometry" />
        </mxCell>
        <mxCell id="cshWt5R04KCTWZORSb7K-39" value="&lt;div&gt;Return&lt;/div&gt;&lt;div&gt;2&lt;br&gt;&lt;/div&gt;" style="rounded=1;whiteSpace=wrap;html=1;" vertex="1" parent="1">
          <mxGeometry x="1120" y="470" width="120" height="60" as="geometry" />
        </mxCell>
        <mxCell id="cshWt5R04KCTWZORSb7K-44" value="" style="edgeStyle=orthogonalEdgeStyle;rounded=0;orthogonalLoop=1;jettySize=auto;html=1;" edge="1" parent="1" source="cshWt5R04KCTWZORSb7K-41" target="cshWt5R04KCTWZORSb7K-43">
          <mxGeometry relative="1" as="geometry" />
        </mxCell>
        <mxCell id="cshWt5R04KCTWZORSb7K-41" value="Karamba(0, b, 2, 2)" style="rounded=1;whiteSpace=wrap;html=1;" vertex="1" parent="1">
          <mxGeometry x="640" y="330" width="120" height="60" as="geometry" />
        </mxCell>
        <mxCell id="cshWt5R04KCTWZORSb7K-47" style="edgeStyle=orthogonalEdgeStyle;rounded=0;orthogonalLoop=1;jettySize=auto;html=1;entryX=0;entryY=0.5;entryDx=0;entryDy=0;" edge="1" parent="1" source="cshWt5R04KCTWZORSb7K-43" target="cshWt5R04KCTWZORSb7K-45">
          <mxGeometry relative="1" as="geometry" />
        </mxCell>
        <mxCell id="cshWt5R04KCTWZORSb7K-43" value="Return 2" style="rounded=1;whiteSpace=wrap;html=1;" vertex="1" parent="1">
          <mxGeometry x="640" y="470" width="120" height="60" as="geometry" />
        </mxCell>
        <mxCell id="cshWt5R04KCTWZORSb7K-45" value="&lt;div&gt;Return 4&lt;/div&gt;" style="rounded=1;whiteSpace=wrap;html=1;" vertex="1" parent="1">
          <mxGeometry x="860" y="690" width="120" height="60" as="geometry" />
        </mxCell>
      </root>
    </mxGraphModel>
  </diagram>
</mxfile>
